<?xml version="1.0" encoding="iso-8859-1"?>
<!-- Generator: Adobe Illustrator 21.1.0, SVG Export Plug-In . SVG Version: 6.00 Build 0)  -->
<svg version="1.1" id="Layer_1" xmlns="http://www.w3.org/2000/svg" xmlns:xlink="http://www.w3.org/1999/xlink" x="0px" y="0px"
	 viewBox="0 0 24 24" enable-background="new 0 0 24 24" xml:space="preserve">
<g>
	<path fill="#303C42" d="M22.9784336,7.7525501l-1.9521484-6.3955078c-0.0019531-0.0068359-0.0048828-0.0136719-0.0068359-0.0200195    V1.3365347V1.3360465c-0.078125-0.2246094-0.296875-0.3652344-0.5419922-0.3310547    c-0.0078125,0.0009766-0.015625,0.0024414-0.0224609,0.003418L13.874917,2.1973746    c-0.1875095,0.0341797-0.3398438,0.1723633-0.3925781,0.355957c-0.0517578,0.1835938,0.0058594,0.3808594,0.1474609,0.5083008    l2.2714844,2.0366209c0.0233154,0.0209351,0.0512695,0.0322876,0.0772705,0.0480957l-0.0040283,0.0065918l1.2494516,0.7626953    l-1.4823008,2.0844727h-3.512207l0.6366577-1.6479492c0.0722656-0.1875,0.0253906-0.3999023-0.1191406-0.5395508    L12.303628,5.3838978l0.7617188-0.1010742c0.1962891-0.0258789,0.3583984-0.1650391,0.4140625-0.3549805    s-0.0058594-0.3950195-0.1572266-0.5224609L12.421792,3.6446402l0.5029297-0.1713867    c0.2607422-0.0893555,0.4003906-0.3735352,0.3115234-0.6347656c-0.0898438-0.2617188-0.3740234-0.4003906-0.6357422-0.3115234    l-1.3378906,0.4570313c-0.1699219,0.0581055-0.2958984,0.2036133-0.3291016,0.3808594    c-0.0332031,0.1767578,0.03125,0.3579102,0.1689453,0.4741211l0.7109375,0.601074L11.147378,4.528429    c-0.1904297,0.0249023-0.3496094,0.1567383-0.4091797,0.3388672c-0.0605469,0.1821289-0.0107422,0.3828125,0.1269531,0.5161133    L11.8133936,6.30089l-0.6566772,1.6992188H9.9173975L8.991128,2.9107535    C8.9647608,2.7691519,8.8797998,2.6456168,8.756753,2.571398l-2.4999995-1.5    c-0.2324219-0.1411133-0.5419922-0.065918-0.6855469,0.1713867c-0.1425781,0.2368164-0.0654297,0.5439453,0.171875,0.6860352    l2.304687,1.3833008l0.8527832,4.6879883H7.9493804c-0.2452393-1.6916504-1.690979-3-3.4494629-3    c-1.9296877,0-3.5000002,1.5703125-3.5000002,3.5c0,1.3777466,0.812317,2.5981445,2.0516357,3.1621094    c-0.0250854,0.2763672-0.0516357,0.5522461-0.0516357,0.8378906c0,4.956543,4.0624905,10.5,9.5,10.5    c5.4374895,0,9.500001-5.543457,9.500001-10.5c0-1.5678711-0.3789063-2.9995117-1.1259766-4.2558594    c-0.0898438-0.1513672-0.2529297-0.2441406-0.4296875-0.2441406h-3.4758911l1.111145-1.5622559l1.309082,0.7990723    l0.0037842-0.0062256c0.0259399,0.0158691,0.0489502,0.0355835,0.0782471,0.0467529l2.8505859,1.0883789    c0.0585938,0.0219727,0.1191406,0.0327148,0.1787109,0.0327148c0.1240234,0,0.2470703-0.0463867,0.3408203-0.1347656    C22.9803867,8.1338978,23.0340977,7.9351673,22.9784336,7.7525501z"/>
	<path fill="#FFFFFF" d="M17.8810215,9.0001087l-0.864502,4.0351563l-0.5263672-2.6333008    c-0.0419922-0.2094727-0.2119141-0.3691406-0.4238281-0.3974609c-0.218751-0.03125-0.4179697,0.0810547-0.5136728,0.2719727    l-0.8486328,1.6967773l-0.5942993-2.9731445H17.8810215z"/>
	<path fill="#FFCB29" d="M1.9999174,8.5001087c0-1.378418,1.1210936-2.5,2.5-2.5c1.2076416,0,2.2171631,0.8602905,2.4494629,2    H4.5555816c-0.1767578,0-0.3398438,0.0927734-0.4296875,0.2441406C3.6901028,8.9770985,3.395242,9.7758656,3.2121365,10.6202259    C2.4726956,10.176012,1.9999174,9.384203,1.9999174,8.5001087z"/>
	<path opacity="0.2" fill="#FFFFFF" d="M2.3124075,9.0001087c0-1.378418,1.1211035-2.5,2.5-2.5    c0.7823586,0,1.477427,0.3643188,1.9360452,0.9285278c-0.40271-0.8415527-1.2546997-1.4285278-2.2485352-1.4285278    c-1.3789065,0-2.5,1.121582-2.5,2.5c0,0.574646,0.2151488,1.098877,0.5580443,1.5254517    C2.4101956,9.7090321,2.3124075,9.3665028,2.3124075,9.0001087z"/>
	<path fill="#8D6E63" d="M20.999918,12.5001087c0,4.484375-3.6347656,9.5-8.500001,9.5    c-0.951355,0-1.8532715-0.1968384-2.6925659-0.5388794c0.0593262,0.0247803,0.1242676,0.0388794,0.1925659,0.0388794    c0.276123,0,0.5-0.223877,0.5-0.5c0-0.2761841-0.223877-0.5-0.5-0.5s-0.5,0.2238159-0.5,0.5    c0,0.2060547,0.1248779,0.3825073,0.3029175,0.4590454c-3.4503169-1.4089355-5.8029175-5.3530884-5.8029175-8.9590454    c0-1.2836914,0.2841799-2.4599609,0.8466799-3.5h8.2434692l0.9196167,4.5981445    c0.0419922,0.2094727,0.2119141,0.3691406,0.4238281,0.3974609c0.2177734,0.0288086,0.4179688-0.0820313,0.5136719-0.2719727    l0.8486328-1.6967773l0.7138681,3.5712891c0.046875,0.2324219,0.25,0.4003906,0.4863281,0.4018555    c0.0019531,0,0.0029297,0,0.0039063,0c0.2353516,0,0.4394531-0.1645508,0.4892578-0.3950195L18.90452,9.0001087h1.2487183    C20.7157383,10.0401478,20.999918,11.2164173,20.999918,12.5001087z"/>
	<polygon fill="#7CB342" points="19.2793369,5.9983997 17.1263218,4.6841908 19.8456211,2.649523  "/>
	<polygon fill="#F78F1E" points="15.0585108,2.9996207 18.5516758,2.3687613 16.2635899,4.0801868  "/>
	<polygon opacity="0.2" fill="#FFFFFF" points="18.0193882,2.7668936 18.5516758,2.3687613 15.0585108,2.9996207     15.3388453,3.2510245  "/>
	<polygon fill="#F78F1E" points="20.2108555,6.4893665 20.6864414,3.6714957 21.7235508,7.0670033  "/>
	<polygon opacity="0.1" fill="#010101" points="21.3795567,6.9356556 21.7235508,7.0670033 20.6864414,3.6714957     20.5782871,4.3123646  "/>
	<path opacity="0.1" fill="#010101" d="M20.1532383,9.0001087H19.499918v0.0001831    c0,2.0334473-0.6923218,4.1601563-1.8742676,5.9678955l-0.1364746,0.6369019    c-0.0498047,0.2304688-0.2539063,0.3950195-0.4892578,0.3950195c-0.0009766,0-0.0019531,0-0.0039063,0    c-0.0375977-0.0002441-0.0722046-0.0112915-0.107666-0.0195313c-1.701539,2.0724487-4.1137094,3.5197144-6.8884287,3.5197144    c-1.4238281,0-2.7495112-0.3869629-3.936523-1.0371094c0.9778442,1.3144531,2.2562251,2.3903198,3.7394404,2.9959717    C9.624795,21.382616,9.499917,21.2061634,9.499917,21.0001087c0-0.2761841,0.223877-0.5,0.5-0.5s0.5,0.2238159,0.5,0.5    c0,0.276123-0.223877,0.5-0.5,0.5c-0.0682983,0-0.1332397-0.0140991-0.1925659-0.0388794    c0.8392944,0.342041,1.7412109,0.5388794,2.6925659,0.5388794c4.8652353,0,8.500001-5.015625,8.500001-9.5    C20.999918,11.2164173,20.7157383,10.0401478,20.1532383,9.0001087z"/>
	<circle fill="#303C42" cx="8.999917" cy="20.0001087" r="0.5"/>
	<circle fill="#303C42" cx="10.999917" cy="20.0001087" r="0.5"/>
	<linearGradient id="SVGID_1_" gradientUnits="userSpaceOnUse" x1="16.7762547" y1="11.046526" x2="21.573801" y2="15.8440723">
		<stop  offset="0" style="stop-color:#010101;stop-opacity:0.1"/>
		<stop  offset="1" style="stop-color:#010101;stop-opacity:0"/>
	</linearGradient>
	<path fill="url(#SVGID_1_)" d="M18.90452,9.0001087l-1.4153442,6.6049805    c-0.0498047,0.2304688-0.2539063,0.3950195-0.4892578,0.3950195c-0.0009766,0-0.0019531,0-0.0039063,0    c-0.2363281-0.0014648-0.4394531-0.1694336-0.4863281-0.4018555l-0.7138681-3.5712891l-0.8486328,1.6967773    c-0.0957031,0.1899414-0.2958984,0.3007813-0.5136719,0.2719727c-0.0961914-0.0128784-0.1793213-0.0593872-0.2501831-0.1187134    l4.6787729,4.678772c1.3388672-1.760376,2.1378174-3.9628906,2.1378174-6.0556641c0-1.2836914-0.2841797-2.4599609-0.8466797-3.5    H18.90452z"/>
	<linearGradient id="SVGID_2_" gradientUnits="userSpaceOnUse" x1="1.9867065" y1="5.6086102" x2="21.9296646" y2="14.908165">
		<stop  offset="0" style="stop-color:#FFFFFF;stop-opacity:0.2"/>
		<stop  offset="1" style="stop-color:#FFFFFF;stop-opacity:0"/>
	</linearGradient>
	<path fill="url(#SVGID_2_)" d="M22.9784336,7.7525501l-1.9521484-6.3955078    c-0.0019531-0.0068359-0.0048828-0.0136719-0.0068359-0.0200195V1.3365347V1.3360465    c-0.078125-0.2246094-0.296875-0.3652344-0.5419922-0.3310547c-0.0078125,0.0009766-0.015625,0.0024414-0.0224609,0.003418    L13.874917,2.1973746c-0.1875095,0.0341797-0.3398438,0.1723633-0.3925781,0.355957    c-0.0517578,0.1835938,0.0058594,0.3808594,0.1474609,0.5083008l2.2714844,2.0366209    c0.0233154,0.0209351,0.0512695,0.0322876,0.0772705,0.0480957l-0.0040283,0.0065918l1.2494516,0.7626953l-1.4823008,2.0844727    h-3.512207l0.6366577-1.6479492c0.0722656-0.1875,0.0253906-0.3999023-0.1191406-0.5395508L12.303628,5.3838978    l0.7617188-0.1010742c0.1962891-0.0258789,0.3583984-0.1650391,0.4140625-0.3549805s-0.0058594-0.3950195-0.1572266-0.5224609    L12.421792,3.6446402l0.5029297-0.1713867c0.2607422-0.0893555,0.4003906-0.3735352,0.3115234-0.6347656    c-0.0898438-0.2617188-0.3740234-0.4003906-0.6357422-0.3115234l-1.3378906,0.4570313    c-0.1699219,0.0581055-0.2958984,0.2036133-0.3291016,0.3808594c-0.0332031,0.1767578,0.03125,0.3579102,0.1689453,0.4741211    l0.7109375,0.601074L11.147378,4.528429c-0.1904297,0.0249023-0.3496094,0.1567383-0.4091797,0.3388672    c-0.0605469,0.1821289-0.0107422,0.3828125,0.1269531,0.5161133L11.8133936,6.30089l-0.6566772,1.6992188H9.9173975    L8.991128,2.9107535C8.9647608,2.7691519,8.8797998,2.6456168,8.756753,2.571398l-2.4999995-1.5    c-0.2324219-0.1411133-0.5419922-0.065918-0.6855469,0.1713867c-0.1425781,0.2368164-0.0654297,0.5439453,0.171875,0.6860352    l2.304687,1.3833008l0.8527832,4.6879883H7.9493804c-0.2452393-1.6916504-1.690979-3-3.4494629-3    c-1.9296877,0-3.5000002,1.5703125-3.5000002,3.5c0,1.3777466,0.812317,2.5981445,2.0516357,3.1621094    c-0.0250854,0.2763672-0.0516357,0.5522461-0.0516357,0.8378906c0,4.956543,4.0624905,10.5,9.5,10.5    c5.4374895,0,9.500001-5.543457,9.500001-10.5c0-1.5678711-0.3789063-2.9995117-1.1259766-4.2558594    c-0.0898438-0.1513672-0.2529297-0.2441406-0.4296875-0.2441406h-3.4758911l1.111145-1.5622559l1.309082,0.7990723    l0.0037842-0.0062256c0.0259399,0.0158691,0.0489502,0.0355835,0.0782471,0.0467529l2.8505859,1.0883789    c0.0585938,0.0219727,0.1191406,0.0327148,0.1787109,0.0327148c0.1240234,0,0.2470703-0.0463867,0.3408203-0.1347656    C22.9803867,8.1338978,23.0340977,7.9351673,22.9784336,7.7525501z"/>
</g>
<g>
</g>
<g>
</g>
<g>
</g>
<g>
</g>
<g>
</g>
<g>
</g>
<g>
</g>
<g>
</g>
<g>
</g>
<g>
</g>
<g>
</g>
<g>
</g>
<g>
</g>
<g>
</g>
<g>
</g>
</svg>
